<svg width="213" height="395" viewBox="0 0 213 395" fill="none" xmlns="http://www.w3.org/2000/svg">
<path d="M372.046 342.553C397.711 330.18 405.363 305.051 409.531 292.612C409.254 288.697 408.889 289.232 408.723 287.651C408.515 285.675 403.946 280.722 406.355 272.556C408.764 264.391 407.105 263.155 422.298 246.892C437.491 230.629 449.421 209.764 451.393 183.971C453.366 158.178 440.967 136.781 425.864 119.969C410.762 103.157 384.176 95.9205 337.88 125.652C291.584 155.384 274.862 82.4455 238.982 82.6595C203.101 82.8735 182.167 126.066 169.991 142.347C157.816 158.627 131.876 240.582 130.481 289.801C129.087 339.019 162.507 331.481 180.149 324.234C197.791 316.987 208.306 272.245 223.354 250.746C238.401 229.248 268.29 250.022 274.785 278.874C281.28 307.727 281.293 333.261 299.25 343.269C317.207 353.277 339.966 358.019 372.046 342.553Z" stroke="#807F7F" stroke-width="0.5"/>
<path d="M368.382 340.961C394.046 328.589 401.699 303.459 405.867 291.02C405.59 287.105 405.225 287.64 405.059 286.059C404.851 284.083 400.282 279.13 402.691 270.965C405.1 262.799 403.441 261.563 418.634 245.3C433.827 229.037 445.757 208.172 447.729 182.379C449.702 156.586 437.303 135.189 422.2 118.377C407.098 101.566 380.512 94.3287 334.216 124.06C287.92 153.792 271.198 80.8537 235.318 81.0677C199.437 81.2817 178.503 124.474 166.327 140.755C154.151 157.036 128.212 238.99 126.817 288.209C125.423 337.428 158.843 329.889 176.485 322.642C194.127 315.395 204.641 270.653 219.689 249.155C234.737 227.656 264.626 248.43 271.121 277.282C277.616 306.135 277.629 331.669 295.586 341.677C313.543 351.685 336.302 356.428 368.382 340.961Z" stroke="#807F7F" stroke-width="0.5"/>
<path d="M364.72 339.37C390.384 326.997 398.037 301.867 402.205 289.428C401.927 285.513 401.563 286.048 401.397 284.467C401.189 282.491 396.619 277.539 399.029 269.373C401.438 261.207 399.779 259.972 414.972 243.708C430.165 227.445 442.095 206.58 444.067 180.787C446.04 154.995 433.64 133.598 418.538 116.786C403.436 99.9738 376.849 92.7369 330.554 122.469C284.258 152.2 267.536 79.2619 231.656 79.4759C195.775 79.6899 174.841 122.882 162.665 139.163C150.489 155.444 124.549 237.398 123.155 286.617C121.76 335.836 155.181 328.298 172.823 321.05C190.465 313.803 200.979 269.061 216.027 247.563C231.075 226.064 260.964 246.838 267.459 275.691C273.954 304.543 273.967 330.077 291.924 340.085C309.881 350.093 332.64 354.836 364.72 339.37Z" stroke="#807F7F" stroke-width="0.5"/>
<path d="M361.056 337.778C386.72 325.405 394.373 300.276 398.541 287.837C398.263 283.921 397.899 284.456 397.733 282.875C397.525 280.899 392.955 275.947 395.365 267.781C397.774 259.615 396.114 258.38 411.308 242.117C426.501 225.854 438.431 204.988 440.403 179.196C442.376 153.403 429.976 132.006 414.874 115.194C399.772 98.382 373.185 91.1452 326.889 120.877C280.594 150.609 263.872 77.6701 227.992 77.8841C192.111 78.0981 171.177 121.29 159.001 137.571C146.825 153.852 120.885 235.806 119.491 285.025C118.096 334.244 151.517 326.706 169.159 319.458C186.801 312.211 197.315 267.469 212.363 245.971C227.411 224.473 257.299 245.246 263.794 274.099C270.29 302.951 270.303 328.485 288.26 338.493C306.217 348.501 328.976 353.244 361.056 337.778Z" stroke="#807F7F" stroke-width="0.5"/>
<path d="M357.39 336.186C383.054 323.813 390.707 298.684 394.875 286.245C394.597 282.329 394.233 282.864 394.067 281.284C393.859 279.307 389.289 274.355 391.699 266.189C394.108 258.023 392.449 256.788 407.642 240.525C422.835 224.262 434.765 203.397 436.737 177.604C438.71 151.811 426.31 130.414 411.208 113.602C396.106 96.7902 369.519 89.5534 323.224 119.285C276.928 149.017 260.206 76.0783 224.326 76.2923C188.445 76.5063 167.511 119.699 155.335 135.979C143.159 152.26 117.219 234.215 115.825 283.433C114.43 332.652 147.851 325.114 165.493 317.867C183.135 310.619 193.649 265.878 208.697 244.379C223.745 222.881 253.633 243.655 260.129 272.507C266.624 301.359 266.637 326.893 284.594 336.901C302.551 346.91 325.31 351.652 357.39 336.186Z" stroke="#807F7F" stroke-width="0.5"/>
<path d="M353.728 334.594C379.392 322.221 387.045 297.092 391.213 284.653C390.935 280.738 390.571 281.273 390.405 279.692C390.197 277.716 385.627 272.763 388.036 264.597C390.446 256.432 388.786 255.196 403.979 238.933C419.173 222.67 431.102 201.805 433.075 176.012C435.048 150.219 422.648 128.822 407.546 112.01C392.444 95.1984 365.857 87.9616 319.561 117.693C273.266 147.425 256.544 74.4865 220.664 74.7005C184.783 74.9145 163.849 118.107 151.673 134.388C139.497 150.668 113.557 232.623 112.163 281.842C110.768 331.06 144.189 323.522 161.831 316.275C179.473 309.028 189.987 264.286 205.035 242.787C220.083 221.289 249.971 242.063 256.466 270.915C262.961 299.768 262.975 325.302 280.932 335.31C298.889 345.318 321.648 350.06 353.728 334.594Z" stroke="#807F7F" stroke-width="0.5"/>
<path d="M350.064 333.002C375.728 320.629 383.381 295.5 387.549 283.061C387.271 279.146 386.907 279.681 386.741 278.1C386.533 276.124 381.963 271.171 384.373 263.005C386.782 254.839 385.123 253.604 400.316 237.341C415.509 221.078 427.439 200.213 429.411 174.42C431.384 148.627 418.984 127.23 403.882 110.418C388.78 93.6064 362.193 86.3695 315.898 116.101C269.602 145.833 252.88 72.8945 217 73.1085C181.119 73.3225 160.185 116.515 148.009 132.796C135.833 149.076 109.893 231.031 108.499 280.249C107.104 329.468 140.525 321.93 158.167 314.683C175.809 307.436 186.323 262.694 201.371 241.195C216.419 219.697 246.308 240.471 252.803 269.323C259.298 298.175 259.311 323.71 277.268 333.718C295.225 343.726 317.984 348.468 350.064 333.002Z" stroke="#807F7F" stroke-width="0.5"/>
<path d="M346.4 331.41C372.064 319.038 379.716 293.908 383.885 281.469C383.607 277.554 383.243 278.089 383.077 276.508C382.869 274.532 378.299 269.579 380.708 261.414C383.118 253.248 381.458 252.012 396.651 235.749C411.844 219.486 423.774 198.621 425.747 172.828C427.719 147.035 415.32 125.638 400.218 108.826C385.116 92.0146 358.529 84.7777 312.233 114.509C265.937 144.241 249.216 71.3027 213.335 71.5167C177.455 71.7307 156.52 114.923 144.345 131.204C132.169 147.485 106.229 229.439 104.835 278.658C103.44 327.876 136.86 320.338 154.503 313.091C172.145 305.844 182.659 261.102 197.707 239.604C212.755 218.105 242.643 238.879 249.138 267.731C255.633 296.584 255.647 322.118 273.604 332.126C291.561 342.134 314.32 346.877 346.4 331.41Z" stroke="#807F7F" stroke-width="0.5"/>
<path d="M342.738 329.819C368.402 317.446 376.054 292.317 380.223 279.878C379.945 275.962 379.581 276.497 379.414 274.916C379.207 272.94 374.637 267.988 377.046 259.822C379.455 251.656 377.796 250.421 392.989 234.158C408.182 217.895 420.112 197.029 422.085 171.237C424.057 145.444 411.658 124.047 396.556 107.235C381.454 90.423 354.867 83.1862 308.571 112.918C262.275 142.65 245.554 69.7111 209.673 69.9251C173.793 70.1391 152.858 113.331 140.683 129.612C128.507 145.893 102.567 227.847 101.173 277.066C99.778 326.285 133.198 318.747 150.84 311.499C168.483 304.252 178.997 259.51 194.045 238.012C209.093 216.514 238.981 237.287 245.476 266.14C251.971 294.992 251.984 320.526 269.942 330.534C287.899 340.542 310.657 345.285 342.738 329.819Z" stroke="#807F7F" stroke-width="0.5"/>
<path d="M339.074 328.227C364.738 315.854 372.39 290.725 376.559 278.285C376.281 274.37 375.917 274.905 375.751 273.324C375.543 271.348 370.973 266.396 373.382 258.23C375.792 250.064 374.132 248.829 389.325 232.566C404.518 216.303 416.448 195.437 418.421 169.645C420.393 143.852 407.994 122.455 392.892 105.643C377.79 88.831 351.203 81.5941 304.907 111.326C258.611 141.058 241.89 68.1191 206.009 68.3331C170.129 68.5471 149.194 111.739 137.019 128.02C124.843 144.301 98.9032 226.255 97.5086 275.474C96.1141 324.693 129.534 317.155 147.177 309.907C164.819 302.66 175.333 257.918 190.381 236.42C205.429 214.922 235.317 235.695 241.812 264.548C248.307 293.4 248.321 318.934 266.278 328.942C284.235 338.95 306.994 343.693 339.074 328.227Z" stroke="#807F7F" stroke-width="0.5"/>
<path d="M335.41 326.635C361.074 314.262 368.726 289.133 372.895 276.694C372.617 272.778 372.252 273.313 372.086 271.733C371.879 269.756 367.309 264.804 369.718 256.638C372.127 248.472 370.468 247.237 385.661 230.974C400.854 214.711 412.784 193.845 414.757 168.053C416.729 142.26 404.33 120.863 389.228 104.051C374.126 87.2392 347.539 80.0023 301.243 109.734C254.947 139.466 238.226 66.5273 202.345 66.7413C166.465 66.9553 145.53 110.148 133.355 126.428C121.179 142.709 95.2389 224.664 93.8444 273.882C92.4499 323.101 125.87 315.563 143.512 308.316C161.155 301.068 171.669 256.327 186.717 234.828C201.765 213.33 231.653 234.104 238.148 262.956C244.643 291.808 244.656 317.342 262.613 327.35C280.571 337.359 303.329 342.101 335.41 326.635Z" stroke="#807F7F" stroke-width="0.5"/>
<path d="M331.745 325.043C357.41 312.67 365.062 287.541 369.23 275.102C368.953 271.187 368.588 271.722 368.422 270.141C368.214 268.165 363.645 263.212 366.054 255.046C368.463 246.881 366.804 245.645 381.997 229.382C397.19 213.119 409.12 192.254 411.092 166.461C413.065 140.668 400.666 119.271 385.563 102.459C370.461 85.6474 343.875 78.4105 297.579 108.142C251.283 137.874 234.561 64.9355 198.681 65.1495C162.801 65.3635 141.866 108.556 129.69 124.837C117.515 141.117 91.5747 223.072 90.1801 272.291C88.7856 321.509 122.206 313.971 139.848 306.724C157.49 299.477 168.005 254.735 183.053 233.236C198.1 211.738 227.989 232.512 234.484 261.364C240.979 290.217 240.992 315.751 258.949 325.759C276.906 335.767 299.665 340.509 331.745 325.043Z" stroke="#807F7F" stroke-width="0.5"/>
<path d="M328.081 323.451C353.746 311.079 361.398 285.949 365.566 273.51C365.289 269.595 364.924 270.13 364.758 268.549C364.551 266.573 359.981 261.62 362.39 253.455C364.799 245.289 363.14 244.053 378.333 227.79C393.526 211.527 405.456 190.662 407.429 164.869C409.401 139.076 397.002 117.679 381.9 100.867C366.797 84.0556 340.211 76.8187 293.915 106.55C247.619 136.282 230.898 63.3437 195.017 63.5577C159.137 63.7717 138.202 106.964 126.026 123.245C113.851 139.526 87.9108 221.48 86.5163 270.699C85.1217 319.918 118.542 312.379 136.184 305.132C153.826 297.885 164.341 253.143 179.389 231.645C194.437 210.146 224.325 230.92 230.82 259.772C237.315 288.625 237.328 314.159 255.285 324.167C273.243 334.175 296.001 338.918 328.081 323.451Z" stroke="#807F7F" stroke-width="0.5"/>
<path d="M324.419 321.86C350.084 309.487 357.736 284.357 361.904 271.918C361.627 268.003 361.262 268.538 361.096 266.957C360.889 264.981 356.319 260.029 358.728 251.863C361.137 243.697 359.478 242.462 374.671 226.198C389.864 209.935 401.794 189.07 403.766 163.277C405.739 137.485 393.34 116.088 378.237 99.2757C363.135 82.4638 336.549 75.2269 290.253 104.959C243.957 134.69 227.235 61.7519 191.355 61.9659C155.475 62.1799 134.54 105.372 122.364 121.653C110.189 137.934 84.2487 219.888 82.8541 269.107C81.4596 318.326 114.88 310.788 132.522 303.54C150.164 296.293 160.679 251.551 175.727 230.053C190.774 208.554 220.663 229.328 227.158 258.181C233.653 287.033 233.666 312.567 251.623 322.575C269.58 332.583 292.339 337.326 324.419 321.86Z" stroke="#807F7F" stroke-width="0.5"/>
<path d="M320.755 320.268C346.419 307.895 354.072 282.766 358.24 270.327C357.962 266.411 357.598 266.946 357.432 265.365C357.224 263.389 352.654 258.437 355.064 250.271C357.473 242.105 355.814 240.87 371.007 224.607C386.2 208.344 398.13 187.478 400.102 161.686C402.075 135.893 389.675 114.496 374.573 97.6839C359.471 80.872 332.884 73.6351 286.589 103.367C240.293 133.099 223.571 60.1601 187.691 60.3741C151.81 60.5881 130.876 103.78 118.7 120.061C106.524 136.342 80.5844 218.296 79.1898 267.515C77.7953 316.734 111.216 309.196 128.858 301.948C146.5 294.701 157.014 249.959 172.062 228.461C187.11 206.963 216.998 227.736 223.493 256.589C229.989 285.441 230.002 310.975 247.959 320.983C265.916 330.991 288.675 335.734 320.755 320.268Z" stroke="#807F7F" stroke-width="0.5"/>
<path d="M317.091 318.676C342.755 306.303 350.408 281.174 354.576 268.735C354.299 264.819 353.934 265.354 353.768 263.774C353.56 261.797 348.991 256.845 351.4 248.679C353.809 240.513 352.15 239.278 367.343 223.015C382.536 206.752 394.466 185.886 396.438 160.094C398.411 134.301 386.012 112.904 370.909 96.0921C355.807 79.2802 329.221 72.0433 282.925 101.775C236.629 131.507 219.907 58.5683 184.027 58.7823C148.146 58.9963 127.212 102.189 115.036 118.469C102.86 134.75 76.9205 216.705 75.526 265.923C74.1315 315.142 107.552 307.604 125.194 300.357C142.836 293.109 153.35 248.368 168.398 226.869C183.446 205.371 213.335 226.145 219.83 254.997C226.325 283.849 226.338 309.383 244.295 319.391C262.252 329.4 285.011 334.142 317.091 318.676Z" stroke="#807F7F" stroke-width="0.5"/>
<path d="M313.429 317.084C339.093 304.711 346.746 279.582 350.914 267.143C350.636 263.228 350.272 263.763 350.106 262.182C349.898 260.206 345.328 255.253 347.738 247.087C350.147 238.922 348.488 237.686 363.681 221.423C378.874 205.16 390.804 184.295 392.776 158.502C394.749 132.709 382.349 111.312 367.247 94.5003C352.145 77.6884 325.558 70.4515 279.263 100.183C232.967 129.915 216.245 56.9765 180.365 57.1905C144.484 57.4045 123.55 100.597 111.374 116.878C99.1984 133.158 73.2584 215.113 71.8639 264.332C70.4694 313.55 103.89 306.012 121.532 298.765C139.174 291.518 149.688 246.776 164.736 225.277C179.784 203.779 209.673 224.553 216.168 253.405C222.663 282.258 222.676 307.792 240.633 317.8C258.59 327.808 281.349 332.55 313.429 317.084Z" stroke="#807F7F" stroke-width="0.5"/>
<path d="M309.763 315.492C335.427 303.119 343.08 277.99 347.248 265.551C346.971 261.636 346.606 262.171 346.44 260.59C346.232 258.614 341.663 253.661 344.072 245.495C346.481 237.329 344.822 236.094 360.015 219.831C375.208 203.568 387.138 182.703 389.11 156.91C391.083 131.117 378.683 109.72 363.581 92.9082C348.479 76.0964 321.892 68.8595 275.597 98.5912C229.301 128.323 212.579 55.3845 176.699 55.5985C140.818 55.8124 119.884 99.0047 107.708 115.286C95.5324 131.566 69.5925 213.521 68.198 262.739C66.8034 311.958 100.224 304.42 117.866 297.173C135.508 289.926 146.022 245.184 161.07 223.685C176.118 202.187 206.007 222.961 212.502 251.813C218.997 280.665 219.01 306.2 236.967 316.208C254.924 326.216 277.683 330.958 309.763 315.492Z" stroke="#807F7F" stroke-width="0.5"/>
<path d="M306.099 313.9C331.763 301.528 339.416 276.398 343.584 263.959C343.306 260.044 342.942 260.579 342.776 258.998C342.568 257.022 337.998 252.069 340.408 243.904C342.817 235.738 341.158 234.502 356.351 218.239C371.544 201.976 383.474 181.111 385.446 155.318C387.419 129.525 375.019 108.128 359.917 91.3164C344.815 74.5046 318.228 67.2677 271.932 96.9994C225.637 126.731 208.915 53.7927 173.035 54.0067C137.154 54.2206 116.22 97.4129 104.044 113.694C91.8683 129.975 65.9284 211.929 64.5338 261.148C63.1393 310.366 96.5597 302.828 114.202 295.581C131.844 288.334 142.358 243.592 157.406 222.094C172.454 200.595 202.342 221.369 208.837 250.221C215.333 279.074 215.346 304.608 233.303 314.616C251.26 324.624 274.019 329.366 306.099 313.9Z" stroke="#807F7F" stroke-width="0.5"/>
<path d="M302.437 312.309C328.101 299.936 335.754 274.806 339.922 262.367C339.644 258.452 339.28 258.987 339.114 257.406C338.906 255.43 334.336 250.478 336.745 242.312C339.155 234.146 337.495 232.911 352.688 216.647C367.882 200.384 379.811 179.519 381.784 153.726C383.757 127.934 371.357 106.537 356.255 89.7246C341.153 72.9128 314.566 65.6759 268.27 95.4076C221.975 125.139 205.253 52.2009 169.373 52.4149C133.492 52.6288 112.558 95.8211 100.382 112.102C88.2062 128.383 62.2662 210.337 60.8717 259.556C59.4772 308.775 92.8975 301.236 110.54 293.989C128.182 286.742 138.696 242 153.744 220.502C168.792 199.003 198.68 219.777 205.175 248.629C211.67 277.482 211.684 303.016 229.641 313.024C247.598 323.032 270.357 327.775 302.437 312.309Z" stroke="#807F7F" stroke-width="0.5"/>
<path d="M298.773 310.717C324.437 298.344 332.089 273.215 336.258 260.775C335.98 256.86 335.616 257.395 335.45 255.814C335.242 253.838 330.672 248.886 333.081 240.72C335.491 232.554 333.831 231.319 349.024 215.056C364.217 198.793 376.147 177.927 378.12 152.135C380.093 126.342 367.693 104.945 352.591 88.1328C337.489 71.321 310.902 64.0841 264.606 93.8158C218.31 123.548 201.589 50.6091 165.708 50.8231C129.828 51.0371 108.894 94.2293 96.7178 110.51C84.5421 126.791 58.6022 208.745 57.2077 257.964C55.8131 307.183 89.2335 299.645 106.876 292.397C124.518 285.15 135.032 240.408 150.08 218.91C165.128 197.412 195.016 218.185 201.511 247.038C208.006 275.89 208.02 301.424 225.977 311.432C243.934 321.44 266.693 326.183 298.773 310.717Z" stroke="#807F7F" stroke-width="0.5"/>
<path d="M295.109 309.125C320.773 296.752 328.425 271.623 332.594 259.184C332.316 255.268 331.952 255.803 331.786 254.223C331.578 252.246 327.008 247.294 329.417 239.128C331.826 230.962 330.167 229.727 345.36 213.464C360.553 197.201 372.483 176.335 374.456 150.543C376.428 124.75 364.029 103.353 348.927 86.541C333.825 69.7292 307.238 62.4923 260.942 92.224C214.646 121.956 197.925 49.0173 162.044 49.2313C126.164 49.4453 105.229 92.6376 93.0538 108.918C80.8781 125.199 54.9381 207.154 53.5436 256.372C52.1491 305.591 85.5694 298.053 103.212 290.806C120.854 283.558 131.368 238.817 146.416 217.318C161.464 195.82 191.352 216.594 197.847 245.446C204.342 274.298 204.356 299.832 222.313 309.84C240.27 319.849 263.029 324.591 295.109 309.125Z" stroke="#807F7F" stroke-width="0.5"/>
<path d="M291.447 307.533C317.111 295.16 324.763 270.031 328.932 257.592C328.654 253.677 328.29 254.212 328.123 252.631C327.916 250.655 323.346 245.702 325.755 237.536C328.164 229.37 326.505 228.135 341.698 211.872C356.891 195.609 368.821 174.744 370.794 148.951C372.766 123.158 360.367 101.761 345.265 84.9493C330.163 68.1374 303.576 60.9005 257.28 90.6322C210.984 120.364 194.263 47.4255 158.382 47.6395C122.502 47.8535 101.567 91.0458 89.3917 107.327C77.2159 123.607 51.276 205.562 49.8815 254.781C48.487 303.999 81.9073 296.461 99.5495 289.214C117.192 281.967 127.706 237.225 142.754 215.726C157.802 194.228 187.69 215.002 194.185 243.854C200.68 272.706 200.693 298.241 218.651 308.249C236.608 318.257 259.366 322.999 291.447 307.533Z" stroke="#807F7F" stroke-width="0.5"/>
<path d="M287.783 305.941C313.447 293.569 321.099 268.439 325.268 256C324.99 252.085 324.625 252.62 324.459 251.039C324.252 249.063 319.682 244.11 322.091 235.945C324.5 227.779 322.841 226.543 338.034 210.28C353.227 194.017 365.157 173.152 367.13 147.359C369.102 121.566 356.703 100.169 341.601 83.3575C326.499 66.5456 299.912 59.3087 253.616 89.0404C207.32 118.772 190.599 45.8337 154.718 46.0477C118.838 46.2617 97.9032 89.454 85.7275 105.735C73.5518 122.016 47.6119 203.97 46.2174 253.189C44.8228 302.408 78.2432 294.869 95.8853 287.622C113.527 280.375 124.042 235.633 139.09 214.135C154.138 192.636 184.026 213.41 190.521 242.262C197.016 271.115 197.029 296.649 214.986 306.657C232.944 316.665 255.702 321.408 287.783 305.941Z" stroke="#807F7F" stroke-width="0.5"/>
<path d="M284.117 304.35C309.781 291.977 317.433 266.847 321.602 254.408C321.324 250.493 320.959 251.028 320.793 249.447C320.586 247.471 316.016 242.519 318.425 234.353C320.834 226.187 319.175 224.952 334.368 208.688C349.561 192.425 361.491 171.56 363.464 145.767C365.436 119.975 353.037 98.5775 337.935 81.7657C322.833 64.9538 296.246 57.7169 249.95 87.4486C203.654 117.18 186.933 44.2419 151.052 44.4559C115.172 44.6699 94.2373 87.8622 82.0616 104.143C69.8859 120.424 43.9459 202.378 42.5514 251.597C41.1569 300.816 74.5772 293.277 92.2194 286.03C109.862 278.783 120.376 234.041 135.424 212.543C150.472 191.044 180.36 211.818 186.855 240.671C193.35 269.523 193.363 295.057 211.321 305.065C229.278 315.073 252.036 319.816 284.117 304.35Z" stroke="#807F7F" stroke-width="0.5"/>
<path d="M280.455 302.758C306.119 290.385 313.771 265.256 317.94 252.817C317.662 248.901 317.297 249.436 317.131 247.855C316.924 245.879 312.354 240.927 314.763 232.761C317.172 224.595 315.513 223.36 330.706 207.097C345.899 190.834 357.829 169.968 359.802 144.176C361.774 118.383 349.375 96.9857 334.273 80.1739C319.17 63.362 292.584 56.1251 246.288 85.8568C199.992 115.589 183.271 42.6501 147.39 42.8641C111.51 43.0781 90.5752 86.2704 78.3995 102.551C66.2238 118.832 40.2838 200.786 38.8893 250.005C37.4948 299.224 70.9151 291.686 88.5573 284.438C106.199 277.191 116.714 232.449 131.762 210.951C146.81 189.453 176.698 210.226 183.193 239.079C189.688 267.931 189.701 293.465 207.658 303.473C225.616 313.481 248.374 318.224 280.455 302.758Z" stroke="#807F7F" stroke-width="0.5"/>
<path d="M276.791 301.166C302.455 288.793 310.107 263.664 314.276 251.224C313.998 247.309 313.634 247.844 313.467 246.263C313.26 244.287 308.69 239.335 311.099 231.169C313.508 223.003 311.849 221.768 327.042 205.505C342.235 189.242 354.165 168.376 356.138 142.584C358.11 116.791 345.711 95.3937 330.609 78.5818C315.507 61.77 288.92 54.5331 242.624 84.2648C196.328 113.997 179.607 41.058 143.726 41.2721C107.846 41.486 86.9113 84.6783 74.7357 100.959C62.5599 117.24 36.62 199.194 35.2255 248.413C33.831 297.632 67.2513 290.094 84.8935 282.846C102.536 275.599 113.05 230.857 128.098 209.359C143.146 187.86 173.034 208.634 179.529 237.487C186.024 266.339 186.037 291.873 203.995 301.881C221.952 311.889 244.71 316.632 276.791 301.166Z" stroke="#807F7F" stroke-width="0.5"/>
<path d="M273.126 299.574C298.791 287.201 306.443 262.072 310.611 249.633C310.334 245.718 309.969 246.253 309.803 244.672C309.596 242.696 305.026 237.743 307.435 229.577C309.844 221.412 308.185 220.176 323.378 203.913C338.571 187.65 350.501 166.785 352.473 140.992C354.446 115.199 342.047 93.8021 326.945 76.9903C311.842 60.1784 285.256 52.9415 238.96 82.6732C192.664 112.405 175.942 39.4665 140.062 39.6805C104.182 39.8945 83.247 83.0868 71.0713 99.3676C58.8956 115.648 32.9557 197.603 31.5612 246.822C30.1666 296.04 63.587 288.502 81.2291 281.255C98.8713 274.008 109.386 229.266 124.434 207.767C139.482 186.269 169.37 207.043 175.865 235.895C182.36 264.748 182.373 290.282 200.33 300.29C218.287 310.298 241.046 315.04 273.126 299.574Z" stroke="#807F7F" stroke-width="0.5"/>
<path d="M269.464 297.982C295.128 285.61 302.781 260.48 306.949 248.041C306.672 244.126 306.307 244.661 306.141 243.08C305.933 241.104 301.364 236.151 303.773 227.986C306.182 219.82 304.523 218.584 319.716 202.321C334.909 186.058 346.839 165.193 348.811 139.4C350.784 113.607 338.385 92.2103 323.282 75.3985C308.18 58.5866 281.594 51.3497 235.298 81.0814C189.002 110.813 172.28 37.8747 136.4 38.0887C100.519 38.3027 79.5849 81.495 67.4092 97.7758C55.2335 114.057 29.2936 196.011 27.8991 245.23C26.5045 294.449 59.9249 286.91 77.567 279.663C95.2092 272.416 105.724 227.674 120.771 206.176C135.819 184.677 165.708 205.451 172.203 234.303C178.698 263.156 178.711 288.69 196.668 298.698C214.625 308.706 237.384 313.449 269.464 297.982Z" stroke="#807F7F" stroke-width="0.5"/>
<path d="M265.8 296.39C291.465 284.018 299.117 258.888 303.285 246.449C303.008 242.534 302.643 243.069 302.477 241.488C302.27 239.512 297.7 234.559 300.109 226.394C302.518 218.228 300.859 216.992 316.052 200.729C331.245 184.466 343.175 163.601 345.147 137.808C347.12 112.015 334.721 90.6183 319.619 73.8064C304.516 56.9946 277.93 49.7577 231.634 79.4894C185.338 109.221 168.616 36.2827 132.736 36.4967C96.8556 36.7106 75.921 79.9029 63.7454 96.1837C51.5696 112.465 25.6297 194.419 24.2352 243.638C22.8407 292.856 56.261 285.318 73.9032 278.071C91.5453 270.824 102.06 226.082 117.108 204.584C132.156 183.085 162.044 203.859 168.539 232.711C175.034 261.564 175.047 287.098 193.004 297.106C210.961 307.114 233.72 311.856 265.8 296.39Z" stroke="#807F7F" stroke-width="0.5"/>
<path d="M262.136 294.799C287.8 282.426 295.453 257.296 299.621 244.857C299.343 240.942 298.979 241.477 298.813 239.896C298.605 237.92 294.035 232.968 296.445 224.802C298.854 216.636 297.195 215.401 312.388 199.137C327.581 182.874 339.511 162.009 341.483 136.216C343.456 110.424 331.056 89.0265 315.954 72.2146C300.852 55.4028 274.265 48.1659 227.97 77.8976C181.674 107.629 164.952 34.6909 129.072 34.9049C93.1913 35.1188 72.2568 78.3111 60.0811 94.5919C47.9054 110.873 21.9655 192.827 20.5709 242.046C19.1764 291.265 52.5968 283.726 70.2389 276.479C87.8811 269.232 98.3954 224.49 113.443 202.992C128.491 181.493 158.38 202.267 164.875 231.119C171.37 259.972 171.383 285.506 189.34 295.514C207.297 305.522 230.056 310.265 262.136 294.799Z" stroke="#807F7F" stroke-width="0.5"/>
</svg>
